PathFileType	4	(X/Y/Z)	C:\Users\Basilio\Documents\Thesis Gigler\squatting_fais\c3dfiles\047\SJ_pre4\markers_experimental.trc
DataRate	CameraRate	NumFrames	NumMarkers	Units	OrigDataRate	OrigDataStartFrame	OrigNumFrames
200.000000	200.000000	4	61	mm	200.000000	1176	1569
Frame#	Time	FHD			LBHD			RBHD			C7			T10			CLAV			LSHO			LUUPA			LMUPA			LDUPA			LLEP			LMEP			LRAD			LUL			LRFIN			RSHO			RUPA1			RMUPA			RDUPA			RLEP			RMEP			RRAD			RUL			RUFIN			LASI			RASI			USACR			LSACR			RSACR			LTHI1			LTHI2			LTHI3			LTHI4			LLFC			LMFC			LTIB1			LTIB2			LTIB3			LTIB4			LLMAL			LMMAL			LMT1			LMT2			LMT5			RTHI			RTHI2			RTHI3			RTHI4			RLFC			RMFC			RTIB1			RTIB2			RTIB3			RTIB4			RLMAL			RMMAL			RHEE			RMT1			RMT2			RMT5			*60			
		X1	Y1	Z1	X2	Y2	Z2	X3	Y3	Z3	X4	Y4	Z4	X5	Y5	Z5	X6	Y6	Z6	X7	Y7	Z7	X8	Y8	Z8	X9	Y9	Z9	X10	Y10	Z10	X11	Y11	Z11	X12	Y12	Z12	X13	Y13	Z13	X14	Y14	Z14	X15	Y15	Z15	X16	Y16	Z16	X17	Y17	Z17	X18	Y18	Z18	X19	Y19	Z19	X20	Y20	Z20	X21	Y21	Z21	X22	Y22	Z22	X23	Y23	Z23	X24	Y24	Z24	X25	Y25	Z25	X26	Y26	Z26	X27	Y27	Z27	X28	Y28	Z28	X29	Y29	Z29	X30	Y30	Z30	X31	Y31	Z31	X32	Y32	Z32	X33	Y33	Z33	X34	Y34	Z34	X35	Y35	Z35	X36	Y36	Z36	X37	Y37	Z37	X38	Y38	Z38	X39	Y39	Z39	X40	Y40	Z40	X41	Y41	Z41	X42	Y42	Z42	X43	Y43	Z43	X44	Y44	Z44	X45	Y45	Z45	X46	Y46	Z46	X47	Y47	Z47	X48	Y48	Z48	X49	Y49	Z49	X50	Y50	Z50	X51	Y51	Z51	X52	Y52	Z52	X53	Y53	Z53	X54	Y54	Z54	X55	Y55	Z55	X56	Y56	Z56	X57	Y57	Z57	X58	Y58	Z58	X59	Y59	Z59	X60	Y60	Z60	X61	Y61	Z61	

1177	5.88	213.8664855957032	1120.03125	-892.247009277344	58.39817428588869	1170.218505859375	-975.0653076171877	37.21401596069337	1181.381958007813	-828.5208740234377	-70.20404052734376	1073.699096679688	-906.7143554687502	-320.1651611328126	880.5503540039065	-906.4334106445315	10.4293851852417	921.0756835937502	-902.2518310546877	-13.54996585845948	983.0598144531252	-1081.743286132813	-162.5210571289063	996.9578247070315	-1199.311889648438	-158.1257781982422	952.5891113281252	-1225.061157226563	-211.5556640625001	974.4338378906252	-1245.189208984375	-257.0479431152344	927.7280273437502	-1284.71142578125	-316.7861022949219	949.871765136719	-1208.872802734375	-308.8424072265626	750.3986816406251	-1105.571411132813	-293.9772033691407	699.6904907226564	-1162.219360351563	-266.9326782226563	714.7233886718751	-1063.33447265625	-23.9913330078125	1005.29833984375	-739.0793457031251	-195.4250183105469	1026.139404296875	-630.9537963867189	-197.9895172119141	983.9990844726565	-604.8378906250001	-252.0067138671876	1007.18701171875	-592.6799926757814	-301.1273803710938	961.2263183593752	-558.0353393554689	-354.7392578125001	968.853210449219	-635.2111816406251	-259.7945861816407	752.0267333984376	-689.9309082031251	-295.3421936035157	714.9592285156251	-632.7894897460939	-256.2645568847657	684.8802490234376	-728.9859619140626	-368.6847534179688	607.8295288085939	-1012.694091796875	-375.1687316894532	610.9584350585939	-786.7307739257815	-442.0159301757814	794.8898925781252	-910.3828125000002	-468.7143554687501	778.2139282226565	-938.7416992187502	-471.8104248046876	778.561218261719	-880.807067871094	-423.0990600585939	611.6125488281251	-1124.068969726563	-342.2760620117188	605.1214599609376	-1144.523559570313	-315.3195190429688	635.6875000000001	-1118.528076171875	-315.8830261230469	558.5456542968751	-1171.947265625	-186.9902038574219	455.4999389648439	-1205.492309570313	-129.405502319336	440.965789794922	-1093.133544921875	-174.1107940673828	279.3888244628907	-1126.711669921875	-213.1424407958985	243.2752838134766	-1195.970336914063	-190.031982421875	234.3453063964844	-1156.674926757813	-231.5383605957032	167.6141204833985	-1123.626098632813	-317.2725830078126	94.9683303833008	-1166.765747070313	-282.6389160156251	102.243034362793	-1081.782958984375	-164.9742584228516	65.56505584716798	-1132.126831054688	-173.9341278076172	64.16662597656251	-1175.924194335938	-224.8389129638672	45.35395431518555	-1213.420654296875	-409.5292053222657	581.0236206054689	-663.7163696289064	-345.6700439453126	579.4754028320314	-644.5860595703126	-324.7832641601563	603.5513916015626	-652.5883178710939	-300.9317932128907	511.9165344238282	-623.5784301757814	-180.9689178466797	434.9608154296876	-611.7480468750001	-126.7916946411133	435.7754516601564	-731.3211059570314	-160.6283721923828	310.2223510742188	-633.5006103515626	-259.7973022460938	261.3271179199219	-620.1928710937501	-217.8152618408204	244.6982574462891	-630.1892700195314	-222.9614562988282	201.6187744140626	-670.2556762695314	-344.7672424316407	90.97117614746095	-674.4637451171876	-295.4799499511719	101.5026321411133	-754.6165771484376	-396.8454589843751	53.31475067138673	-742.1037597656251	-186.7605590820313	55.12817382812501	-697.7111206054689	-199.0815887451172	57.9153175354004	-653.4404907226564	-259.8214111328126	30.82289695739747	-611.2772216796876	nan	nan	nan	
1178	5.885	213.9257965087891	1120.0849609375	-892.3680419921877	58.25928878784181	1170.116943359375	-975.0080566406252	37.15538024902344	1181.279296875	-828.385437011719	-70.20806884765626	1073.635131835938	-906.6188964843752	-320.1914062500001	880.5217285156252	-906.291931152344	10.39956188201904	921.0816040039065	-902.1624755859377	-13.70537090301514	983.0125732421877	-1081.621337890625	-162.2144165039063	996.3565673828127	-1199.359985351563	-158.1246643066407	952.4932861328127	-1224.990112304688	-211.5892181396485	974.2813110351565	-1245.05419921875	-257.2278442382813	927.5786132812502	-1284.457397460938	-316.9537048339844	949.7296142578127	-1208.604125976563	-308.9414978027344	750.2862548828126	-1105.406005859375	-294.0377502441407	699.5539550781251	-1162.0693359375	-266.9761657714844	714.5352172851564	-1063.235229492188	-23.99670219421387	1005.358154296875	-739.2069091796876	-195.5484466552735	1026.080688476563	-630.8723754882814	-198.0150299072266	983.9390869140627	-604.7461547851564	-252.0379638671876	1007.074157714844	-592.5621337890626	-301.1439819335938	961.1677856445315	-557.9718017578126	-354.7210998535157	968.7011718750002	-635.1712036132814	-259.9309387207032	751.8884887695314	-689.7395629882814	-295.4262695312501	714.9573364257814	-632.8641967773439	-256.4907226562501	684.6727294921876	-728.6738281250001	-368.9457702636719	607.5343017578126	-1012.401550292969	-375.5348205566407	610.9086914062501	-786.443054199219	-442.1035156250001	794.8157958984377	-910.3235473632815	-468.853240966797	778.0955810546877	-938.6524658203127	-471.9867553710939	778.5028076171877	-880.7215576171877	-423.2518310546876	611.5234375000001	-1124.018188476563	-342.3638000488282	605.0753173828126	-1144.423706054688	-315.4158020019532	635.6077880859376	-1118.453857421875	-316.0140380859376	558.4760742187501	-1171.890380859375	-187.0118865966797	455.5367736816407	-1205.486328125	-129.1656341552735	441.2042541503907	-1093.181518554688	-174.1550598144532	279.3957824707032	-1126.757568359375	-213.2694091796876	243.2479553222657	-1195.942993164063	-190.1930541992188	234.132797241211	-1156.645141601563	-231.6012115478516	167.7155456542969	-1123.991333007813	-317.2721252441407	94.98496246337892	-1166.760131835938	-282.6950683593751	102.1714401245117	-1081.714111328125	-165.0102691650391	65.54650878906251	-1132.161987304688	-174.0125427246094	64.26720428466798	-1175.8525390625	-224.8676757812501	45.36472320556641	-1213.40771484375	-409.5385742187501	580.9733886718751	-663.6805419921876	-345.6948852539063	579.3707885742189	-644.4172973632814	-324.7981262207032	603.4858398437501	-652.5133666992189	-301.0315856933594	511.8742675781251	-623.3607788085939	-181.0007934570313	434.8276672363282	-611.7647094726564	-126.8864669799805	435.7453613281251	-731.0612792968751	-160.6716461181641	310.2492980957032	-633.4185791015626	-259.7619323730469	261.3410644531251	-620.2544555664064	-217.8208618164063	244.671859741211	-630.1341552734376	-222.9707183837891	201.5639038085938	-670.2193603515626	-344.7392578125001	90.97787475585939	-674.3682861328126	-295.4058227539063	101.569206237793	-754.6657104492189	-396.8912353515626	53.30544662475587	-742.1123657226564	-186.7849426269532	55.12241744995119	-697.6741943359376	-199.1293182373047	57.97360610961915	-653.2451782226564	-259.8284606933594	30.82133293151856	-611.2375488281251	nan	nan	nan	
1179	5.89	213.6871185302735	1119.910522460938	-892.2076416015627	58.24560546875001	1170.119506835938	-974.9444580078127	36.8377799987793	1181.237182617188	-828.257995605469	-70.26147460937501	1073.611450195313	-906.5687255859377	-320.2556457519532	880.471130371094	-906.071716308594	10.25232791900635	921.0132446289065	-901.9539794921877	-13.67693138122559	982.972106933594	-1081.560180664063	-162.255126953125	996.2572021484377	-1199.290771484375	-158.2396697998047	952.421813964844	-1224.89599609375	-211.7823333740235	974.1693115234377	-1244.863647460938	-257.5087280273438	927.466735839844	-1284.304565429688	-316.9989013671876	949.5606079101565	-1208.50439453125	-309.0386962890626	750.1560058593751	-1105.2705078125	-294.1493530273438	699.4028320312501	-1161.944458007813	-267.1424560546876	714.3753662109376	-1062.989868164063	-24.00373268127442	1005.345031738281	-739.2036132812501	-195.6653137207032	1025.991821289063	-630.6698608398439	-198.0198974609376	983.9069824218752	-604.6915893554689	-252.0666809082032	1006.935119628906	-592.5256958007814	-301.2114868164063	961.095886230469	-557.8007812500001	-354.7543029785157	968.5467529296877	-635.0864257812501	-260.0242919921876	751.6524047851564	-689.4618530273439	-295.6819458007813	714.8613281250001	-632.6420898437501	-256.7223205566407	684.5298461914064	-728.1843872070314	-368.7878112792969	607.8040161132814	-1012.826965332031	-375.1271972656251	610.6533813476564	-786.852478027344	-442.1749572753907	794.7449340820315	-910.2006835937502	-468.9834899902345	777.9856567382815	-938.558044433594	-472.0218200683595	778.2733154296877	-880.6577148437502	-423.398162841797	611.4074096679689	-1123.90478515625	-342.4646911621094	605.0031738281251	-1144.319091796875	-315.5406799316407	635.5709838867189	-1118.337768554688	-316.0414733886719	558.4378662109376	-1171.807983398438	-187.0653076171875	455.5176086425782	-1205.484619140625	-129.3728179931641	441.0654602050782	-1093.127075195313	-174.1577606201172	279.4089965820313	-1126.753540039063	-213.2389526367188	243.2517089843751	-1195.892944335938	-190.1955871582032	234.1125793457032	-1156.919799804688	-231.5640411376954	167.5892028808594	-1123.532348632813	-317.2823181152344	95.01879119873048	-1166.79345703125	-282.6376037597657	102.2524795532227	-1081.786865234375	-165.0219879150391	65.54113006591798	-1132.198974609375	-173.882308959961	64.1577606201172	-1175.93505859375	-224.792709350586	45.32553482055665	-1213.389526367188	-409.512908935547	580.8572998046876	-663.5279541015626	-345.7114257812501	579.3471069335939	-644.3127441406251	-324.9211730957032	603.3428955078126	-652.2667236328126	-301.0660400390626	511.740692138672	-623.3043823242189	-181.0044097900391	434.7676086425782	-611.6292114257814	-126.8387451171875	435.6827087402345	-730.9193115234376	-160.6849517822266	310.2449645996094	-633.3099365234376	-259.7471008300782	261.3393554687501	-620.1823730468751	-217.7969207763672	244.6595153808594	-630.1131591796876	-222.9591827392579	201.6268920898438	-670.1068115234376	-344.7459716796876	90.95479583740236	-674.3777465820314	-295.4748840332032	101.5230712890625	-754.6135253906251	-396.8902282714845	53.29871368408205	-742.1486816406251	-186.7801971435547	55.0974578857422	-697.5617675781251	-199.067611694336	58.01294708251955	-653.2990112304689	-259.8828125000001	30.68556022644044	-611.2640991210939	nan	nan	nan	
1180	5.895	213.6907958984376	1119.833251953125	-892.1855468750002	58.04872131347658	1170.071533203125	-974.796569824219	36.77793502807618	1181.161010742188	-828.3317871093752	-70.34190368652345	1073.52001953125	-906.539978027344	-320.3225402832032	880.4378662109377	-905.876892089844	10.09162044525147	920.971862792969	-901.834167480469	-13.79013919830323	982.9277954101565	-1081.444580078125	-162.4456634521485	996.1989746093752	-1199.088256835938	-158.4145050048828	952.3569335937502	-1224.778686523438	-211.9715728759766	974.0298461914065	-1244.736083984375	-257.6364440917969	927.3483886718752	-1284.183715820313	-317.1125488281251	949.4106445312502	-1208.351196289063	-309.1808166503907	750.0044555664064	-1105.102661132813	-294.1467895507813	699.2518310546876	-1161.793701171875	-267.1332397460938	714.2720336914064	-1062.8447265625	-24.0306797027588	1005.329406738281	-739.1419677734376	-195.5722656250001	1025.934326171875	-630.6360473632814	-197.9843139648438	983.8655395507815	-604.6101684570314	-252.0043182373047	1006.83935546875	-592.3554687500001	-301.1778869628907	960.9986572265627	-557.6475219726564	-354.7336425781251	968.3734130859377	-635.0208740234376	-260.2032165527344	751.2924804687501	-689.2609252929689	-295.9030456542969	714.6098632812501	-632.4200439453126	-256.7298889160157	684.2304077148439	-727.8587646484376	-368.7145690917969	607.9747924804689	-1013.072387695313	-374.5796813964844	610.6401367187501	-787.081481933594	-442.2179565429689	794.7308349609377	-910.0782470703127	-469.1111755371095	777.8951416015627	-938.423522949219	-471.9680175781251	778.165954589844	-880.6136474609377	-423.4674072265626	611.3383789062501	-1123.802612304688	-342.5475769042969	604.9375610351564	-1144.234008789063	-315.5983581542969	635.5645751953126	-1118.25537109375	-316.1784973144532	558.4082641601564	-1171.74072265625	-187.1187438964844	455.549285888672	-1205.421020507813	-129.3500061035157	441.0850219726564	-1093.12451171875	-174.1470489501953	279.4132690429688	-1126.703369140625	-213.2440338134766	243.2911682128907	-1195.91259765625	-190.3934020996094	233.9168853759766	-1156.572509765625	-231.5763854980469	167.6209259033203	-1123.580322265625	-317.2688293457032	95.05417633056642	-1166.769897460938	-282.6387939453126	102.2476577758789	-1081.792602539063	-165.0177307128907	65.52329254150392	-1132.149536132813	-173.8853454589844	64.11060333251955	-1175.926391601563	-224.8355712890626	45.35606384277344	-1213.404907226563	-409.4801025390626	580.8128662109376	-663.5266113281251	-345.7615051269532	579.2147216796876	-644.1855468750001	-324.9179992675782	603.3226318359376	-652.1856079101564	-301.0216979980469	511.744354248047	-623.0405883789064	-181.0240936279297	434.7023925781251	-611.4932250976564	-126.8893203735352	435.5902099609376	-730.6729736328126	-160.6906127929688	310.2062377929688	-633.1430664062501	-259.7621459960938	261.3466491699219	-620.1398925781251	-217.7890319824219	244.6736907958985	-630.0120239257814	-222.9883117675782	201.487777709961	-669.9395141601564	-344.7519531250001	90.94636535644533	-674.3854370117189	-295.4577636718751	101.5422973632813	-754.5816650390626	-396.8849487304689	53.32527160644533	-742.1417846679689	-186.7664642333985	55.20284652709962	-697.7509155273439	-199.1291198730469	57.94548416137697	-653.3145141601564	-259.8256835937501	30.79748725891114	-611.2440185546876	nan	nan	nan	
